<svg xmlns="http://www.w3.org/2000/svg" viewBox="0 0 3264.6 13.2"><g id="f92e6574-3567-4632-b66f-6540591e5516" data-name="Vrstva 2"><g id="aa3b0d15-656d-4154-b3dd-f12126a93396" data-name="Vrstva 1"><path d="M0,0H0A13.1,13.1,0,0,0,12.2,13.2h.9A12.9,12.9,0,0,0,22,9.6a5.6,5.6,0,0,1,7.6,0,13.1,13.1,0,0,0,9,3.6,12.9,12.9,0,0,0,8.9-3.6,5.6,5.6,0,0,1,7.6,0,13.1,13.1,0,0,0,9,3.6A12.9,12.9,0,0,0,73,9.6a5.6,5.6,0,0,1,7.6,0,13.1,13.1,0,0,0,9,3.6,12.9,12.9,0,0,0,8.9-3.6,5.6,5.6,0,0,1,7.6,0,13.1,13.1,0,0,0,9,3.6A12.9,12.9,0,0,0,124,9.6a5.6,5.6,0,0,1,7.6,0,13.1,13.1,0,0,0,9,3.6,12.9,12.9,0,0,0,8.9-3.6,5.6,5.6,0,0,1,7.6,0,13.1,13.1,0,0,0,9,3.6A12.9,12.9,0,0,0,175,9.6a5.6,5.6,0,0,1,7.6,0,13.1,13.1,0,0,0,9,3.6,12.9,12.9,0,0,0,8.9-3.6,5.6,5.6,0,0,1,7.6,0,13.1,13.1,0,0,0,9,3.6A12.9,12.9,0,0,0,226,9.6a5.6,5.6,0,0,1,7.6,0,13.1,13.1,0,0,0,9,3.6,12.9,12.9,0,0,0,8.9-3.6,5.6,5.6,0,0,1,7.6,0,13.1,13.1,0,0,0,9,3.6A12.9,12.9,0,0,0,277,9.6a5.6,5.6,0,0,1,7.6,0,13.1,13.1,0,0,0,9,3.6,12.9,12.9,0,0,0,8.9-3.6,5.6,5.6,0,0,1,7.6,0,13.1,13.1,0,0,0,9,3.6A12.9,12.9,0,0,0,328,9.6a5.6,5.6,0,0,1,7.6,0,13.1,13.1,0,0,0,9,3.6,12.9,12.9,0,0,0,8.9-3.6,5.6,5.6,0,0,1,7.6,0,12.9,12.9,0,0,0,8.9,3.6,13,13,0,0,0,9-3.6,5.6,5.6,0,0,1,7.6,0,12.9,12.9,0,0,0,8.9,3.6,13,13,0,0,0,9-3.6,5.6,5.6,0,0,1,7.6,0,12.9,12.9,0,0,0,8.9,3.6,13,13,0,0,0,9-3.6,5.6,5.6,0,0,1,7.6,0,12.9,12.9,0,0,0,8.9,3.6,13,13,0,0,0,9-3.6,5.6,5.6,0,0,1,7.6,0,12.9,12.9,0,0,0,8.9,3.6,13,13,0,0,0,9-3.6,5.6,5.6,0,0,1,7.6,0,12.9,12.9,0,0,0,8.9,3.6,13,13,0,0,0,9-3.6,5.6,5.6,0,0,1,7.6,0,12.9,12.9,0,0,0,8.9,3.6,13,13,0,0,0,9-3.6,5.6,5.6,0,0,1,7.6,0,12.9,12.9,0,0,0,8.9,3.6,13,13,0,0,0,9-3.6,5.6,5.6,0,0,1,7.6,0,12.9,12.9,0,0,0,8.9,3.6,13,13,0,0,0,9-3.6,5.6,5.6,0,0,1,7.6,0,12.9,12.9,0,0,0,8.9,3.6,13,13,0,0,0,9-3.6,5.6,5.6,0,0,1,7.6,0,12.9,12.9,0,0,0,8.9,3.6,13,13,0,0,0,9-3.6,5.6,5.6,0,0,1,7.6,0,12.9,12.9,0,0,0,8.9,3.6,13,13,0,0,0,9-3.6,5.6,5.6,0,0,1,7.6,0,12.9,12.9,0,0,0,8.9,3.6,13,13,0,0,0,9-3.6,5.6,5.6,0,0,1,7.6,0,12.9,12.9,0,0,0,8.9,3.6,13,13,0,0,0,9-3.6,5.6,5.6,0,0,1,7.6,0,12.9,12.9,0,0,0,8.9,3.6,13,13,0,0,0,9-3.6,5.6,5.6,0,0,1,7.6,0,12.9,12.9,0,0,0,8.9,3.6,13,13,0,0,0,9-3.6,5.6,5.6,0,0,1,7.6,0,12.9,12.9,0,0,0,8.9,3.6,13,13,0,0,0,9-3.6,5.6,5.6,0,0,1,7.6,0,12.9,12.9,0,0,0,8.9,3.6,13,13,0,0,0,9-3.6,5.6,5.6,0,0,1,7.6,0,12.9,12.9,0,0,0,8.9,3.6,13,13,0,0,0,9-3.6,5.6,5.6,0,0,1,7.6,0,12.9,12.9,0,0,0,8.9,3.6,13,13,0,0,0,9-3.6,5.6,5.6,0,0,1,7.6,0,12.9,12.9,0,0,0,8.9,3.6,13,13,0,0,0,9-3.6,5.6,5.6,0,0,1,7.6,0,12.9,12.9,0,0,0,8.9,3.6,13,13,0,0,0,9-3.6,5.6,5.6,0,0,1,7.6,0,12.9,12.9,0,0,0,8.9,3.6,13,13,0,0,0,9-3.6,5.6,5.6,0,0,1,7.6,0,12.9,12.9,0,0,0,8.9,3.6,13,13,0,0,0,9-3.6,5.6,5.6,0,0,1,7.6,0,12.9,12.9,0,0,0,8.9,3.6,13,13,0,0,0,9-3.6,5.6,5.6,0,0,1,7.6,0,12.9,12.9,0,0,0,8.9,3.6,13,13,0,0,0,9-3.6,5.6,5.6,0,0,1,7.6,0,12.9,12.9,0,0,0,8.9,3.6,13,13,0,0,0,9-3.6,5.6,5.6,0,0,1,7.6,0,12.9,12.9,0,0,0,8.9,3.6,13,13,0,0,0,9-3.6,5.6,5.6,0,0,1,7.6,0,12.9,12.9,0,0,0,8.9,3.6,13,13,0,0,0,9-3.6,5.6,5.6,0,0,1,7.6,0,12.9,12.9,0,0,0,8.9,3.6,13,13,0,0,0,9-3.6,5.6,5.6,0,0,1,7.6,0,12.9,12.9,0,0,0,8.9,3.6,13,13,0,0,0,9-3.6,5.6,5.6,0,0,1,7.6,0,12.9,12.9,0,0,0,8.9,3.6,13,13,0,0,0,9-3.6,5.6,5.6,0,0,1,7.6,0,12.9,12.9,0,0,0,8.9,3.6,13,13,0,0,0,9-3.6,5.6,5.6,0,0,1,7.6,0,13.1,13.1,0,0,0,9,3.6,12.9,12.9,0,0,0,8.9-3.6,5.6,5.6,0,0,1,7.6,0,13.1,13.1,0,0,0,9,3.6,12.9,12.9,0,0,0,8.9-3.6,5.6,5.6,0,0,1,7.6,0,13.1,13.1,0,0,0,9,3.6,12.9,12.9,0,0,0,8.9-3.6,5.6,5.6,0,0,1,7.6,0,13.1,13.1,0,0,0,9,3.6,12.9,12.9,0,0,0,8.9-3.6,5.6,5.6,0,0,1,7.6,0,13.1,13.1,0,0,0,9,3.6,12.9,12.9,0,0,0,8.9-3.6,5.6,5.6,0,0,1,7.6,0,13.1,13.1,0,0,0,9,3.6,12.9,12.9,0,0,0,8.9-3.6,5.6,5.6,0,0,1,7.6,0,13.1,13.1,0,0,0,9,3.6,12.9,12.9,0,0,0,8.9-3.6,5.6,5.6,0,0,1,7.6,0,13.1,13.1,0,0,0,9,3.6,12.9,12.9,0,0,0,8.9-3.6,5.6,5.6,0,0,1,7.6,0,13.1,13.1,0,0,0,9,3.6,12.9,12.9,0,0,0,8.9-3.6,5.6,5.6,0,0,1,7.6,0,13.1,13.1,0,0,0,9,3.6,12.9,12.9,0,0,0,8.9-3.6,5.6,5.6,0,0,1,7.6,0,13.1,13.1,0,0,0,9,3.6,12.9,12.9,0,0,0,8.9-3.6,5.6,5.6,0,0,1,7.6,0,13.1,13.1,0,0,0,9,3.6,12.9,12.9,0,0,0,8.9-3.6,5.6,5.6,0,0,1,7.6,0,13.1,13.1,0,0,0,9,3.6,12.9,12.9,0,0,0,8.9-3.6,5.6,5.6,0,0,1,7.6,0,13.1,13.1,0,0,0,9,3.6,12.9,12.9,0,0,0,8.9-3.6,5.6,5.6,0,0,1,7.6,0,13.1,13.1,0,0,0,9,3.6,12.9,12.9,0,0,0,8.9-3.6,5.6,5.6,0,0,1,7.6,0,13.1,13.1,0,0,0,9,3.6,12.9,12.9,0,0,0,8.9-3.6,5.6,5.6,0,0,1,7.6,0,13.1,13.1,0,0,0,9,3.6,12.9,12.9,0,0,0,8.9-3.6,5.6,5.6,0,0,1,7.6,0,13.1,13.1,0,0,0,9,3.6,12.9,12.9,0,0,0,8.9-3.6,5.6,5.6,0,0,1,7.6,0,13.1,13.1,0,0,0,9,3.6,12.9,12.9,0,0,0,8.9-3.6,5.6,5.6,0,0,1,7.6,0,13.1,13.1,0,0,0,9,3.6,12.9,12.9,0,0,0,8.9-3.6,5.6,5.6,0,0,1,7.6,0,13.1,13.1,0,0,0,9,3.6,12.9,12.9,0,0,0,8.9-3.6,5.6,5.6,0,0,1,7.6,0,13.1,13.1,0,0,0,9,3.6,12.9,12.9,0,0,0,8.9-3.6,5.6,5.6,0,0,1,7.6,0,13.1,13.1,0,0,0,9,3.6,12.9,12.9,0,0,0,8.9-3.6,5.6,5.6,0,0,1,7.6,0,13.1,13.1,0,0,0,9,3.6,12.9,12.9,0,0,0,8.9-3.6,5.6,5.6,0,0,1,7.6,0,13.1,13.1,0,0,0,9,3.6,12.9,12.9,0,0,0,8.9-3.6,5.6,5.6,0,0,1,7.6,0,13.1,13.1,0,0,0,9,3.6,12.9,12.9,0,0,0,8.9-3.6,5.6,5.6,0,0,1,7.6,0,13.1,13.1,0,0,0,9,3.6,12.9,12.9,0,0,0,8.9-3.6,5.6,5.6,0,0,1,7.6,0,13.1,13.1,0,0,0,9,3.6,12.9,12.9,0,0,0,8.9-3.6,5.6,5.6,0,0,1,7.6,0,13.1,13.1,0,0,0,9,3.6,12.9,12.9,0,0,0,8.9-3.6,5.6,5.6,0,0,1,7.6,0,13.1,13.1,0,0,0,9,3.6,12.9,12.9,0,0,0,8.9-3.6,5.6,5.6,0,0,1,7.6,0,13.1,13.1,0,0,0,9,3.6,12.9,12.9,0,0,0,8.9-3.6,5.6,5.6,0,0,1,7.6,0,13.1,13.1,0,0,0,9,3.6,12.9,12.9,0,0,0,8.9-3.6,5.6,5.6,0,0,1,7.6,0,13.1,13.1,0,0,0,9,3.6,12.9,12.9,0,0,0,8.9-3.6,5.6,5.6,0,0,1,7.6,0,13.1,13.1,0,0,0,9,3.6,12.9,12.9,0,0,0,8.9-3.6,5.6,5.6,0,0,1,7.6,0,13.1,13.1,0,0,0,9,3.6,12.9,12.9,0,0,0,8.9-3.6,5.6,5.6,0,0,1,7.6,0,13.1,13.1,0,0,0,9,3.6,12.9,12.9,0,0,0,8.9-3.6,5.6,5.6,0,0,1,7.6,0,13.1,13.1,0,0,0,9,3.6,12.9,12.9,0,0,0,8.9-3.6,5.6,5.6,0,0,1,7.6,0,13.1,13.1,0,0,0,9,3.6,12.9,12.9,0,0,0,8.9-3.6,5.6,5.6,0,0,1,7.6,0,13.1,13.1,0,0,0,9,3.6,12.9,12.9,0,0,0,8.9-3.6,5.6,5.6,0,0,1,7.6,0,13.1,13.1,0,0,0,9,3.6,12.9,12.9,0,0,0,8.9-3.6,5.6,5.6,0,0,1,7.6,0,13.1,13.1,0,0,0,9,3.6,12.9,12.9,0,0,0,8.9-3.6,5.6,5.6,0,0,1,7.6,0,13.1,13.1,0,0,0,9,3.6,12.9,12.9,0,0,0,8.9-3.6,5.6,5.6,0,0,1,7.6,0,13.1,13.1,0,0,0,9,3.6,12.9,12.9,0,0,0,8.9-3.6,5.6,5.6,0,0,1,7.6,0,13.1,13.1,0,0,0,9,3.6,12.9,12.9,0,0,0,8.9-3.6,5.6,5.6,0,0,1,7.6,0,13.1,13.1,0,0,0,9,3.6,12.9,12.9,0,0,0,8.9-3.6,5.6,5.6,0,0,1,7.6,0,13.1,13.1,0,0,0,9,3.6,12.9,12.9,0,0,0,8.9-3.6,5.6,5.6,0,0,1,7.6,0,13.1,13.1,0,0,0,9,3.6,12.9,12.9,0,0,0,8.9-3.6,5.6,5.6,0,0,1,7.6,0,12.9,12.9,0,0,0,8.9,3.6,13,13,0,0,0,9-3.6,5.6,5.6,0,0,1,7.6,0,12.9,12.9,0,0,0,8.9,3.6,13,13,0,0,0,9-3.6,5.6,5.6,0,0,1,7.6,0,12.9,12.9,0,0,0,8.9,3.6,13,13,0,0,0,9-3.6,5.6,5.6,0,0,1,7.6,0,12.9,12.9,0,0,0,8.9,3.6,13,13,0,0,0,9-3.6,5.6,5.6,0,0,1,7.6,0,12.9,12.9,0,0,0,8.9,3.6,13,13,0,0,0,9-3.6,5.6,5.6,0,0,1,7.6,0,12.9,12.9,0,0,0,8.9,3.6,13,13,0,0,0,9-3.6,5.6,5.6,0,0,1,7.6,0,12.9,12.9,0,0,0,8.9,3.6,13,13,0,0,0,9-3.6,5.6,5.6,0,0,1,7.6,0,12.9,12.9,0,0,0,8.9,3.6,13,13,0,0,0,9-3.6,5.6,5.6,0,0,1,7.6,0,12.9,12.9,0,0,0,8.9,3.6,13,13,0,0,0,9-3.6,5.6,5.6,0,0,1,7.6,0,12.9,12.9,0,0,0,8.9,3.6,13,13,0,0,0,9-3.6,5.6,5.6,0,0,1,7.6,0,12.9,12.9,0,0,0,8.9,3.6,13,13,0,0,0,9-3.6,5.6,5.6,0,0,1,7.6,0,12.9,12.9,0,0,0,8.9,3.6,13,13,0,0,0,9-3.6,5.6,5.6,0,0,1,7.6,0,12.9,12.9,0,0,0,8.9,3.6,13,13,0,0,0,9-3.6,5.6,5.6,0,0,1,7.6,0,12.9,12.9,0,0,0,8.9,3.6,13,13,0,0,0,9-3.6,5.6,5.6,0,0,1,7.6,0,12.9,12.9,0,0,0,8.9,3.6,13,13,0,0,0,9-3.6,5.6,5.6,0,0,1,7.6,0,12.9,12.9,0,0,0,8.9,3.6,13,13,0,0,0,9-3.6,5.6,5.6,0,0,1,7.6,0,12.9,12.9,0,0,0,8.9,3.6,13,13,0,0,0,9-3.6,5.6,5.6,0,0,1,7.6,0,12.9,12.9,0,0,0,8.9,3.6,13,13,0,0,0,9-3.6,5.6,5.6,0,0,1,7.6,0,12.9,12.9,0,0,0,8.9,3.6,13,13,0,0,0,9-3.6,5.6,5.6,0,0,1,7.6,0,12.9,12.9,0,0,0,8.9,3.6,13,13,0,0,0,9-3.6,5.6,5.6,0,0,1,7.6,0,12.9,12.9,0,0,0,8.9,3.6,13,13,0,0,0,9-3.6,5.6,5.6,0,0,1,7.6,0,12.9,12.9,0,0,0,8.9,3.6,13,13,0,0,0,9-3.6,5.6,5.6,0,0,1,7.6,0,12.9,12.9,0,0,0,8.9,3.6,13,13,0,0,0,9-3.6,5.6,5.6,0,0,1,7.6,0,12.9,12.9,0,0,0,8.9,3.6,13,13,0,0,0,9-3.6,5.6,5.6,0,0,1,7.6,0,12.9,12.9,0,0,0,8.9,3.6,13,13,0,0,0,9-3.6,5.6,5.6,0,0,1,7.6,0,12.9,12.9,0,0,0,8.9,3.6,13,13,0,0,0,9-3.6,5.6,5.6,0,0,1,7.6,0,12.9,12.9,0,0,0,8.9,3.6,13,13,0,0,0,9-3.6,5.6,5.6,0,0,1,7.6,0,12.9,12.9,0,0,0,8.9,3.6,13,13,0,0,0,9-3.6,5.6,5.6,0,0,1,7.6,0,12.9,12.9,0,0,0,8.9,3.6,13,13,0,0,0,9-3.6,5.6,5.6,0,0,1,7.6,0,12.9,12.9,0,0,0,8.9,3.6,13,13,0,0,0,9-3.6,5.6,5.6,0,0,1,7.6,0,12.9,12.9,0,0,0,8.9,3.6,13,13,0,0,0,9-3.6,5.6,5.6,0,0,1,7.6,0,12.9,12.9,0,0,0,8.9,3.6,13,13,0,0,0,9-3.6,5.6,5.6,0,0,1,7.6,0,12.9,12.9,0,0,0,8.9,3.6,13,13,0,0,0,9-3.6,5.6,5.6,0,0,1,7.6,0,12.9,12.9,0,0,0,8.9,3.6A13,13,0,0,0,3264.6.3V0Z" fill="#fff"/></g></g></svg>